<mxfile host="app.diagrams.net" modified="2021-02-12T12:09:58.987Z" agent="5.0 (X11; Linux x86_64) AppleWebKit/537.36 (KHTML, like Gecko) Chrome/87.0.4280.141 Safari/537.36" etag="BM5C59m_p39UkL8HqfAn" version="14.3.1" type="github">
  <diagram id="6yBv9EPGHSS3pZFMt0RR" name="Page-1">
    <mxGraphModel dx="1662" dy="806" grid="1" gridSize="10" guides="1" tooltips="1" connect="1" arrows="1" fold="1" page="1" pageScale="1" pageWidth="2000" pageHeight="2000" math="0" shadow="0">
      <root>
        <mxCell id="0" />
        <mxCell id="1" parent="0" />
        <mxCell id="rghyE2yy_vqSzcF_WPR2-24" value="" style="edgeStyle=none;orthogonalLoop=1;jettySize=auto;html=1;endArrow=none;" edge="1" parent="1" source="rghyE2yy_vqSzcF_WPR2-1" target="rghyE2yy_vqSzcF_WPR2-23">
          <mxGeometry relative="1" as="geometry" />
        </mxCell>
        <mxCell id="rghyE2yy_vqSzcF_WPR2-29" value="" style="edgeStyle=none;orthogonalLoop=1;jettySize=auto;html=1;endArrow=none;" edge="1" parent="1" source="rghyE2yy_vqSzcF_WPR2-1" target="rghyE2yy_vqSzcF_WPR2-28">
          <mxGeometry relative="1" as="geometry" />
        </mxCell>
        <mxCell id="rghyE2yy_vqSzcF_WPR2-50" value="" style="edgeStyle=none;orthogonalLoop=1;jettySize=auto;html=1;endArrow=none;" edge="1" parent="1" source="rghyE2yy_vqSzcF_WPR2-1" target="rghyE2yy_vqSzcF_WPR2-49">
          <mxGeometry relative="1" as="geometry" />
        </mxCell>
        <mxCell id="rghyE2yy_vqSzcF_WPR2-1" value="Customer" style="rounded=0;whiteSpace=wrap;html=1;" vertex="1" parent="1">
          <mxGeometry x="150" y="380" width="120" height="60" as="geometry" />
        </mxCell>
        <mxCell id="rghyE2yy_vqSzcF_WPR2-9" value="" style="edgeStyle=none;orthogonalLoop=1;jettySize=auto;html=1;endArrow=none;" edge="1" parent="1" source="rghyE2yy_vqSzcF_WPR2-2" target="rghyE2yy_vqSzcF_WPR2-8">
          <mxGeometry relative="1" as="geometry" />
        </mxCell>
        <mxCell id="rghyE2yy_vqSzcF_WPR2-11" value="" style="edgeStyle=none;orthogonalLoop=1;jettySize=auto;html=1;endArrow=none;" edge="1" parent="1" source="rghyE2yy_vqSzcF_WPR2-2" target="rghyE2yy_vqSzcF_WPR2-10">
          <mxGeometry relative="1" as="geometry" />
        </mxCell>
        <mxCell id="rghyE2yy_vqSzcF_WPR2-13" value="" style="edgeStyle=none;orthogonalLoop=1;jettySize=auto;html=1;endArrow=none;" edge="1" parent="1" source="rghyE2yy_vqSzcF_WPR2-2" target="rghyE2yy_vqSzcF_WPR2-12">
          <mxGeometry relative="1" as="geometry" />
        </mxCell>
        <mxCell id="rghyE2yy_vqSzcF_WPR2-41" value="" style="edgeStyle=none;orthogonalLoop=1;jettySize=auto;html=1;endArrow=none;" edge="1" parent="1" source="rghyE2yy_vqSzcF_WPR2-2" target="rghyE2yy_vqSzcF_WPR2-39">
          <mxGeometry relative="1" as="geometry" />
        </mxCell>
        <mxCell id="rghyE2yy_vqSzcF_WPR2-2" value="pet" style="rounded=0;whiteSpace=wrap;html=1;" vertex="1" parent="1">
          <mxGeometry x="150" y="105" width="120" height="60" as="geometry" />
        </mxCell>
        <mxCell id="rghyE2yy_vqSzcF_WPR2-8" value="id" style="ellipse;whiteSpace=wrap;html=1;rounded=0;" vertex="1" parent="1">
          <mxGeometry x="10" y="95" width="120" height="80" as="geometry" />
        </mxCell>
        <mxCell id="rghyE2yy_vqSzcF_WPR2-10" value="name" style="ellipse;whiteSpace=wrap;html=1;rounded=0;" vertex="1" parent="1">
          <mxGeometry x="10" y="10" width="120" height="80" as="geometry" />
        </mxCell>
        <mxCell id="rghyE2yy_vqSzcF_WPR2-12" value="breed" style="ellipse;whiteSpace=wrap;html=1;rounded=0;" vertex="1" parent="1">
          <mxGeometry x="10" y="180" width="120" height="80" as="geometry" />
        </mxCell>
        <mxCell id="rghyE2yy_vqSzcF_WPR2-23" value="name" style="ellipse;whiteSpace=wrap;html=1;rounded=0;" vertex="1" parent="1">
          <mxGeometry x="10" y="390" width="120" height="80" as="geometry" />
        </mxCell>
        <mxCell id="rghyE2yy_vqSzcF_WPR2-28" value="id" style="ellipse;whiteSpace=wrap;html=1;rounded=0;" vertex="1" parent="1">
          <mxGeometry x="10" y="290" width="120" height="80" as="geometry" />
        </mxCell>
        <mxCell id="rghyE2yy_vqSzcF_WPR2-43" value="" style="edgeStyle=none;orthogonalLoop=1;jettySize=auto;html=1;endArrow=none;" edge="1" parent="1" source="rghyE2yy_vqSzcF_WPR2-37" target="rghyE2yy_vqSzcF_WPR2-40">
          <mxGeometry relative="1" as="geometry" />
        </mxCell>
        <mxCell id="rghyE2yy_vqSzcF_WPR2-46" value="" style="edgeStyle=none;orthogonalLoop=1;jettySize=auto;html=1;endArrow=none;" edge="1" parent="1" source="rghyE2yy_vqSzcF_WPR2-37" target="rghyE2yy_vqSzcF_WPR2-45">
          <mxGeometry relative="1" as="geometry" />
        </mxCell>
        <mxCell id="rghyE2yy_vqSzcF_WPR2-37" value="type" style="shape=ext;margin=3;double=1;whiteSpace=wrap;html=1;align=center;" vertex="1" parent="1">
          <mxGeometry x="430" y="100" width="140" height="70" as="geometry" />
        </mxCell>
        <mxCell id="rghyE2yy_vqSzcF_WPR2-44" value="" style="edgeStyle=none;orthogonalLoop=1;jettySize=auto;html=1;endArrow=none;" edge="1" parent="1" source="rghyE2yy_vqSzcF_WPR2-38" target="rghyE2yy_vqSzcF_WPR2-40">
          <mxGeometry relative="1" as="geometry" />
        </mxCell>
        <mxCell id="rghyE2yy_vqSzcF_WPR2-48" value="" style="edgeStyle=none;orthogonalLoop=1;jettySize=auto;html=1;endArrow=none;" edge="1" parent="1" source="rghyE2yy_vqSzcF_WPR2-38" target="rghyE2yy_vqSzcF_WPR2-47">
          <mxGeometry relative="1" as="geometry" />
        </mxCell>
        <mxCell id="rghyE2yy_vqSzcF_WPR2-38" value="breed" style="shape=ext;margin=3;double=1;whiteSpace=wrap;html=1;align=center;" vertex="1" parent="1">
          <mxGeometry x="730" y="100" width="140" height="70" as="geometry" />
        </mxCell>
        <mxCell id="rghyE2yy_vqSzcF_WPR2-42" value="" style="edgeStyle=none;orthogonalLoop=1;jettySize=auto;html=1;endArrow=none;" edge="1" parent="1" source="rghyE2yy_vqSzcF_WPR2-39" target="rghyE2yy_vqSzcF_WPR2-37">
          <mxGeometry relative="1" as="geometry" />
        </mxCell>
        <mxCell id="rghyE2yy_vqSzcF_WPR2-39" value="is" style="shape=rhombus;double=1;perimeter=rhombusPerimeter;whiteSpace=wrap;html=1;align=center;" vertex="1" parent="1">
          <mxGeometry x="290" y="105" width="120" height="60" as="geometry" />
        </mxCell>
        <mxCell id="rghyE2yy_vqSzcF_WPR2-40" value="is" style="shape=rhombus;double=1;perimeter=rhombusPerimeter;whiteSpace=wrap;html=1;align=center;" vertex="1" parent="1">
          <mxGeometry x="590" y="105" width="120" height="60" as="geometry" />
        </mxCell>
        <mxCell id="rghyE2yy_vqSzcF_WPR2-45" value="type" style="ellipse;whiteSpace=wrap;html=1;" vertex="1" parent="1">
          <mxGeometry x="440" y="10" width="120" height="80" as="geometry" />
        </mxCell>
        <mxCell id="rghyE2yy_vqSzcF_WPR2-47" value="breed" style="ellipse;whiteSpace=wrap;html=1;" vertex="1" parent="1">
          <mxGeometry x="740" y="10" width="120" height="80" as="geometry" />
        </mxCell>
        <mxCell id="rghyE2yy_vqSzcF_WPR2-49" value="is" style="shape=rhombus;double=1;perimeter=rhombusPerimeter;whiteSpace=wrap;html=1;align=center;" vertex="1" parent="1">
          <mxGeometry x="300" y="380" width="120" height="60" as="geometry" />
        </mxCell>
        <mxCell id="rghyE2yy_vqSzcF_WPR2-52" value="" style="edgeStyle=none;orthogonalLoop=1;jettySize=auto;html=1;endArrow=none;" edge="1" parent="1" source="rghyE2yy_vqSzcF_WPR2-51" target="rghyE2yy_vqSzcF_WPR2-49">
          <mxGeometry relative="1" as="geometry" />
        </mxCell>
        <mxCell id="rghyE2yy_vqSzcF_WPR2-54" value="" style="edgeStyle=none;orthogonalLoop=1;jettySize=auto;html=1;endArrow=none;" edge="1" parent="1" source="rghyE2yy_vqSzcF_WPR2-51" target="rghyE2yy_vqSzcF_WPR2-53">
          <mxGeometry relative="1" as="geometry" />
        </mxCell>
        <mxCell id="rghyE2yy_vqSzcF_WPR2-51" value="type" style="shape=ext;margin=3;double=1;whiteSpace=wrap;html=1;align=center;" vertex="1" parent="1">
          <mxGeometry x="450" y="380" width="120" height="60" as="geometry" />
        </mxCell>
        <mxCell id="rghyE2yy_vqSzcF_WPR2-53" value="type" style="ellipse;whiteSpace=wrap;html=1;" vertex="1" parent="1">
          <mxGeometry x="450" y="250" width="120" height="80" as="geometry" />
        </mxCell>
        <mxCell id="rghyE2yy_vqSzcF_WPR2-57" value="" style="edgeStyle=none;orthogonalLoop=1;jettySize=auto;html=1;endArrow=none;" edge="1" parent="1" source="rghyE2yy_vqSzcF_WPR2-55" target="rghyE2yy_vqSzcF_WPR2-56">
          <mxGeometry relative="1" as="geometry" />
        </mxCell>
        <mxCell id="rghyE2yy_vqSzcF_WPR2-60" value="" style="edgeStyle=none;orthogonalLoop=1;jettySize=auto;html=1;endArrow=none;" edge="1" parent="1" source="rghyE2yy_vqSzcF_WPR2-55" target="rghyE2yy_vqSzcF_WPR2-59">
          <mxGeometry relative="1" as="geometry" />
        </mxCell>
        <mxCell id="rghyE2yy_vqSzcF_WPR2-55" value="address" style="rounded=0;whiteSpace=wrap;html=1;" vertex="1" parent="1">
          <mxGeometry x="150" y="580" width="120" height="60" as="geometry" />
        </mxCell>
        <mxCell id="rghyE2yy_vqSzcF_WPR2-58" value="" style="edgeStyle=none;orthogonalLoop=1;jettySize=auto;html=1;endArrow=none;" edge="1" parent="1" source="rghyE2yy_vqSzcF_WPR2-56" target="rghyE2yy_vqSzcF_WPR2-1">
          <mxGeometry relative="1" as="geometry" />
        </mxCell>
        <mxCell id="rghyE2yy_vqSzcF_WPR2-56" value="" style="rhombus;whiteSpace=wrap;html=1;rounded=0;" vertex="1" parent="1">
          <mxGeometry x="170" y="480" width="80" height="80" as="geometry" />
        </mxCell>
        <mxCell id="rghyE2yy_vqSzcF_WPR2-62" value="" style="edgeStyle=none;orthogonalLoop=1;jettySize=auto;html=1;endArrow=none;" edge="1" parent="1" source="rghyE2yy_vqSzcF_WPR2-59" target="rghyE2yy_vqSzcF_WPR2-61">
          <mxGeometry relative="1" as="geometry" />
        </mxCell>
        <mxCell id="rghyE2yy_vqSzcF_WPR2-59" value="" style="rhombus;whiteSpace=wrap;html=1;rounded=0;" vertex="1" parent="1">
          <mxGeometry x="170" y="670" width="80" height="80" as="geometry" />
        </mxCell>
        <mxCell id="rghyE2yy_vqSzcF_WPR2-61" value="employe" style="whiteSpace=wrap;html=1;rounded=0;" vertex="1" parent="1">
          <mxGeometry x="150" y="800" width="120" height="60" as="geometry" />
        </mxCell>
      </root>
    </mxGraphModel>
  </diagram>
</mxfile>
